<svg xmlns="http://www.w3.org/2000/svg" version="1.1" xmlns:xlink="http://www.w3.org/1999/xlink" xmlns:svgjs="http://svgjs.dev/svgjs" viewBox="0 0 800 800"><g stroke-width="46" stroke="hsl(0, 0%, 0%)" fill="none"><circle r="360" cx="400" cy="400" fill="none" opacity="0.25" clip-path="url(&quot;#SvgjsClipPath1690&quot;)"></circle><circle r="266" cx="400" cy="400" fill="none" opacity="0.25" clip-path="url(&quot;#SvgjsClipPath1690&quot;)"></circle><circle r="172" cx="400" cy="400" fill="none" opacity="0.25" clip-path="url(&quot;#SvgjsClipPath1690&quot;)"></circle><circle r="78" cx="400" cy="400" fill="none" opacity="0.25" clip-path="url(&quot;#SvgjsClipPath1690&quot;)"></circle><circle r="377" cx="400" cy="400" fill="none" clip-path="url(&quot;#SvgjsClipPath1691&quot;)"></circle><circle r="283" cx="400" cy="400" fill="none" clip-path="url(&quot;#SvgjsClipPath1691&quot;)"></circle><circle r="189" cx="400" cy="400" fill="none" clip-path="url(&quot;#SvgjsClipPath1691&quot;)"></circle><circle r="95" cx="400" cy="400" fill="none" clip-path="url(&quot;#SvgjsClipPath1691&quot;)"></circle></g><defs><clipPath id="SvgjsClipPath1690"><rect width="44.44444444444444" height="800" x="0" y="0"></rect><rect width="44.44444444444444" height="800" x="88.88888888888889" y="0"></rect><rect width="44.44444444444444" height="800" x="177.77777777777777" y="0"></rect><rect width="44.44444444444444" height="800" x="266.66666666666663" y="0"></rect><rect width="44.44444444444444" height="800" x="355.55555555555554" y="0"></rect><rect width="44.44444444444444" height="800" x="444.44444444444446" y="0"></rect><rect width="44.44444444444444" height="800" x="533.3333333333333" y="0"></rect><rect width="44.44444444444444" height="800" x="622.2222222222222" y="0"></rect><rect width="44.44444444444444" height="800" x="711.1111111111111" y="0"></rect><rect width="44.44444444444444" height="800" x="800" y="0"></rect><rect width="44.44444444444444" height="800" x="888.8888888888889" y="0"></rect><rect width="44.44444444444444" height="800" x="977.7777777777777" y="0"></rect><rect width="44.44444444444444" height="800" x="1066.6666666666665" y="0"></rect><rect width="44.44444444444444" height="800" x="1155.5555555555554" y="0"></rect><rect width="44.44444444444444" height="800" x="1244.4444444444443" y="0"></rect><rect width="44.44444444444444" height="800" x="1333.3333333333333" y="0"></rect><rect width="44.44444444444444" height="800" x="1422.2222222222222" y="0"></rect><rect width="44.44444444444444" height="800" x="1511.111111111111" y="0"></rect><rect width="44.44444444444444" height="800" x="1600" y="0"></rect></clipPath><clipPath id="SvgjsClipPath1691"><rect width="44.44444444444444" height="800" x="44.44444444444444" y="0"></rect><rect width="44.44444444444444" height="800" x="133.33333333333331" y="0"></rect><rect width="44.44444444444444" height="800" x="222.22222222222217" y="0"></rect><rect width="44.44444444444444" height="800" x="311.1111111111111" y="0"></rect><rect width="44.44444444444444" height="800" x="400" y="0"></rect><rect width="44.44444444444444" height="800" x="488.8888888888888" y="0"></rect><rect width="44.44444444444444" height="800" x="577.7777777777777" y="0"></rect><rect width="44.44444444444444" height="800" x="666.6666666666666" y="0"></rect><rect width="44.44444444444444" height="800" x="755.5555555555555" y="0"></rect><rect width="44.44444444444444" height="800" x="844.4444444444445" y="0"></rect><rect width="44.44444444444444" height="800" x="933.3333333333333" y="0"></rect><rect width="44.44444444444444" height="800" x="1022.2222222222221" y="0"></rect><rect width="44.44444444444444" height="800" x="1111.111111111111" y="0"></rect><rect width="44.44444444444444" height="800" x="1200" y="0"></rect><rect width="44.44444444444444" height="800" x="1288.888888888889" y="0"></rect><rect width="44.44444444444444" height="800" x="1377.7777777777778" y="0"></rect><rect width="44.44444444444444" height="800" x="1466.6666666666667" y="0"></rect><rect width="44.44444444444444" height="800" x="1555.5555555555557" y="0"></rect></clipPath></defs></svg>